# Blender 3.5.1
# www.blender.org
o Brick
v 0.000000 0.000000 0.000000
v 0.000000 0.009600 0.000000
v 0.000000 0.000000 0.008000
v 0.000000 0.009600 0.008000
v -0.024000 0.000000 0.000000
v -0.024000 0.009600 0.000000
v -0.024000 0.000000 0.008000
v -0.024000 0.009600 0.008000
vn 1.0000 -0.0000 -0.0000
vn -0.0000 -0.0000 1.0000
vn -1.0000 -0.0000 -0.0000
vn -0.0000 -0.0000 -1.0000
vn -0.0000 -1.0000 -0.0000
vn -0.0000 1.0000 -0.0000
vt 0.375000 0.000000
vt 0.375000 1.000000
vt 0.125000 0.750000
vt 0.625000 0.000000
vt 0.625000 1.000000
vt 0.875000 0.750000
vt 0.375000 0.250000
vt 0.125000 0.500000
vt 0.625000 0.250000
vt 0.875000 0.500000
vt 0.375000 0.750000
vt 0.625000 0.750000
vt 0.375000 0.500000
vt 0.625000 0.500000
s 0
f 1/1/1 2/4/1 4/9/1 3/7/1
f 3/7/2 4/9/2 8/14/2 7/13/2
f 7/13/3 8/14/3 6/12/3 5/11/3
f 5/11/4 6/12/4 2/5/4 1/2/4
f 3/8/5 7/13/5 5/11/5 1/3/5
f 8/14/6 4/10/6 2/6/6 6/12/6
o Cylinder
v -0.004000 0.009600 0.006400
v -0.004000 0.011300 0.006400
v -0.005697 0.009600 0.005697
v -0.005697 0.011300 0.005697
v -0.006400 0.009600 0.004000
v -0.006400 0.011300 0.004000
v -0.005697 0.009600 0.002303
v -0.005697 0.011300 0.002303
v -0.004000 0.009600 0.001600
v -0.004000 0.011300 0.001600
v -0.002303 0.009600 0.002303
v -0.002303 0.011300 0.002303
v -0.001600 0.009600 0.004000
v -0.001600 0.011300 0.004000
v -0.002303 0.009600 0.005697
v -0.002303 0.011300 0.005697
vn -0.0000 -0.0000 1.0000
vn -0.7071 -0.0000 0.7071
vn -1.0000 -0.0000 -0.0000
vn -0.7071 -0.0000 -0.7071
vn -0.0000 -0.0000 -1.0000
vn 0.7071 -0.0000 -0.7071
vn 1.0000 -0.0000 -0.0000
vn -0.0000 1.0000 -0.0000
vn 0.7071 -0.0000 0.7071
vn -0.0000 -1.0000 -0.0000
vt 1.000000 0.500000
vt 0.000000 0.500000
vt 0.750000 0.490000
vt 1.000000 1.000000
vt 0.250000 0.490000
vt 0.000000 1.000000
vt 0.875000 0.500000
vt 0.919706 0.419706
vt 0.875000 1.000000
vt 0.419706 0.419706
vt 0.750000 0.500000
vt 0.990000 0.250000
vt 0.750000 1.000000
vt 0.490000 0.250000
vt 0.625000 0.500000
vt 0.919706 0.080294
vt 0.625000 1.000000
vt 0.419706 0.080294
vt 0.500000 0.500000
vt 0.750000 0.010000
vt 0.500000 1.000000
vt 0.250000 0.010000
vt 0.375000 0.500000
vt 0.580294 0.080294
vt 0.375000 1.000000
vt 0.080294 0.080294
vt 0.250000 0.500000
vt 0.510000 0.250000
vt 0.010000 0.250000
vt 0.250000 1.000000
vt 0.125000 0.500000
vt 0.580294 0.419706
vt 0.080294 0.419706
vt 0.125000 1.000000
s 1
f 9/15/7 10/18/7 12/23/8 11/21/8
f 11/21/8 12/23/8 14/27/9 13/25/9
f 13/25/9 14/27/9 16/31/10 15/29/10
f 15/29/10 16/31/10 18/35/11 17/33/11
f 17/33/11 18/35/11 20/39/12 19/37/12
f 19/37/12 20/39/12 22/44/13 21/41/13
f 12/24/14 10/19/14 24/47/14 22/43/14 20/40/14 18/36/14 16/32/14 14/28/14
f 21/41/13 22/44/13 24/48/15 23/45/15
f 23/45/15 24/48/15 10/20/7 9/16/7
f 9/17/16 11/22/16 13/26/16 15/30/16 17/34/16 19/38/16 21/42/16 23/46/16
o Cylinder.001
v -0.012000 0.009600 0.006400
v -0.012000 0.011300 0.006400
v -0.013697 0.009600 0.005697
v -0.013697 0.011300 0.005697
v -0.014400 0.009600 0.004000
v -0.014400 0.011300 0.004000
v -0.013697 0.009600 0.002303
v -0.013697 0.011300 0.002303
v -0.012000 0.009600 0.001600
v -0.012000 0.011300 0.001600
v -0.010303 0.009600 0.002303
v -0.010303 0.011300 0.002303
v -0.009600 0.009600 0.004000
v -0.009600 0.011300 0.004000
v -0.010303 0.009600 0.005697
v -0.010303 0.011300 0.005697
vn -0.0000 -0.0000 1.0000
vn -0.7071 -0.0000 0.7071
vn -1.0000 -0.0000 -0.0000
vn -0.7071 -0.0000 -0.7071
vn -0.0000 -0.0000 -1.0000
vn 0.7071 -0.0000 -0.7071
vn 1.0000 -0.0000 -0.0000
vn -0.0000 1.0000 -0.0000
vn 0.7071 -0.0000 0.7071
vn -0.0000 -1.0000 -0.0000
vt 1.000000 0.500000
vt 0.000000 0.500000
vt 0.750000 0.490000
vt 1.000000 1.000000
vt 0.250000 0.490000
vt 0.000000 1.000000
vt 0.875000 0.500000
vt 0.919706 0.419706
vt 0.875000 1.000000
vt 0.419706 0.419706
vt 0.750000 0.500000
vt 0.990000 0.250000
vt 0.750000 1.000000
vt 0.490000 0.250000
vt 0.625000 0.500000
vt 0.919706 0.080294
vt 0.625000 1.000000
vt 0.419706 0.080294
vt 0.500000 0.500000
vt 0.750000 0.010000
vt 0.500000 1.000000
vt 0.250000 0.010000
vt 0.375000 0.500000
vt 0.580294 0.080294
vt 0.375000 1.000000
vt 0.080294 0.080294
vt 0.250000 0.500000
vt 0.510000 0.250000
vt 0.010000 0.250000
vt 0.250000 1.000000
vt 0.125000 0.500000
vt 0.580294 0.419706
vt 0.080294 0.419706
vt 0.125000 1.000000
s 1
f 25/49/17 26/52/17 28/57/18 27/55/18
f 27/55/18 28/57/18 30/61/19 29/59/19
f 29/59/19 30/61/19 32/65/20 31/63/20
f 31/63/20 32/65/20 34/69/21 33/67/21
f 33/67/21 34/69/21 36/73/22 35/71/22
f 35/71/22 36/73/22 38/78/23 37/75/23
f 28/58/24 26/53/24 40/81/24 38/77/24 36/74/24 34/70/24 32/66/24 30/62/24
f 37/75/23 38/78/23 40/82/25 39/79/25
f 39/79/25 40/82/25 26/54/17 25/50/17
f 25/51/26 27/56/26 29/60/26 31/64/26 33/68/26 35/72/26 37/76/26 39/80/26
o Cylinder.002
v -0.020000 0.009600 0.006400
v -0.020000 0.011300 0.006400
v -0.021697 0.009600 0.005697
v -0.021697 0.011300 0.005697
v -0.022400 0.009600 0.004000
v -0.022400 0.011300 0.004000
v -0.021697 0.009600 0.002303
v -0.021697 0.011300 0.002303
v -0.020000 0.009600 0.001600
v -0.020000 0.011300 0.001600
v -0.018303 0.009600 0.002303
v -0.018303 0.011300 0.002303
v -0.017600 0.009600 0.004000
v -0.017600 0.011300 0.004000
v -0.018303 0.009600 0.005697
v -0.018303 0.011300 0.005697
vn -0.0000 -0.0000 1.0000
vn -0.7071 -0.0000 0.7071
vn -1.0000 -0.0000 -0.0000
vn -0.7071 -0.0000 -0.7071
vn -0.0000 -0.0000 -1.0000
vn 0.7071 -0.0000 -0.7071
vn 1.0000 -0.0000 -0.0000
vn -0.0000 1.0000 -0.0000
vn 0.7071 -0.0000 0.7071
vn -0.0000 -1.0000 -0.0000
vt 1.000000 0.500000
vt 0.000000 0.500000
vt 0.750000 0.490000
vt 1.000000 1.000000
vt 0.250000 0.490000
vt 0.000000 1.000000
vt 0.875000 0.500000
vt 0.919706 0.419706
vt 0.875000 1.000000
vt 0.419706 0.419706
vt 0.750000 0.500000
vt 0.990000 0.250000
vt 0.750000 1.000000
vt 0.490000 0.250000
vt 0.625000 0.500000
vt 0.919706 0.080294
vt 0.625000 1.000000
vt 0.419706 0.080294
vt 0.500000 0.500000
vt 0.750000 0.010000
vt 0.500000 1.000000
vt 0.250000 0.010000
vt 0.375000 0.500000
vt 0.580294 0.080294
vt 0.375000 1.000000
vt 0.080294 0.080294
vt 0.250000 0.500000
vt 0.510000 0.250000
vt 0.010000 0.250000
vt 0.250000 1.000000
vt 0.125000 0.500000
vt 0.580294 0.419706
vt 0.080294 0.419706
vt 0.125000 1.000000
s 1
f 41/83/27 42/86/27 44/91/28 43/89/28
f 43/89/28 44/91/28 46/95/29 45/93/29
f 45/93/29 46/95/29 48/99/30 47/97/30
f 47/97/30 48/99/30 50/103/31 49/101/31
f 49/101/31 50/103/31 52/107/32 51/105/32
f 51/105/32 52/107/32 54/112/33 53/109/33
f 44/92/34 42/87/34 56/115/34 54/111/34 52/108/34 50/104/34 48/100/34 46/96/34
f 53/109/33 54/112/33 56/116/35 55/113/35
f 55/113/35 56/116/35 42/88/27 41/84/27
f 41/85/36 43/90/36 45/94/36 47/98/36 49/102/36 51/106/36 53/110/36 55/114/36
